{"title":"Eva (1962) DVDRip H264 K42 RE-UPLOAD READ NOTES","uid":6099164,"size":1464712655,"categoryP":"video","categoryS":"movies","magnet":"?xt=urn:btih:6da8734bc574cef80beeef3e2265943fd05d0942&amp;dn=Eva+%281962%29+DVDRip+H264+K42+RE-UPLOAD+READ+NOTES&amp;tr=udp%3A%2F%2Ftracker.openbittorrent.com%3A80&amp;tr=udp%3A%2F%2Fopen.demonii.com%3A1337&amp;tr=udp%3A%2F%2Ftracker.coppersurfer.tk%3A6969&amp;tr=udp%3A%2F%2Fexodus.desync.com%3A6969","seeders":0,"leechers":1,"uploader":"kepler42","files":-1,"time":1294891959,"description":"THIS TORRENT is a RE-UPLOAd of &quot;Eva (1962) DVDRip H264 K42&quot;\n\nFor those of you who are new to it, no problem, its just a Torrent where the main movie is inside another folder.\nJust download and seed. DO NOT READ FURTHER.\n\nFor those of you who had downloaded the Old Torrent many are stuck at 99.8% thanks to some Bastards from Amsterdam.\nThe movie and subs that you downloaded are totally functionnal, but the torrent seems to never complete.\nAnd therefore it appears as having no seeders !!\n\nFor those of you who want to seed you have a choice:\n  - Either you leave it as it is, you seed an incomplete torrent, not really savy\n  - Or you reload entirely the new Torrent. Time and Bandwith consuming.\n  - or you perform this little trick:\n\n1/ Open the New torrent. let the files install themselves.\n2/ Check the  &quot;Eva (1962) DVDRip H264 K42&quot; directory  is present in your New torrent Files\n3/ Stop the new torrent; STop, not remove !\n4/ Move your old Torrent main directory unter the new Torrent. Answer &quot;yes&quot; to every &quot;copy And Replace&quot; you are asked.\n5/ Force Recheck on the new Torrent. You will discover that you have &quot;downloaded&quot; Most of it !!\n6/ Start the new torrent. It should complete in a few seconds or minutes.\n\nKEEP SEEDING.\n\nSorry for the inconvenience. We tried our best to correct the situation created by these TorrentSpammers,\n while not imposing on you to use more of your bandwith thanks to a simple manipulation. \nLet us know what you think of it. \n\nNow the important facts:\n\nA raw Welsh novelist in Venice is humiliated by a money-loving Frenchwoman who erotically ensnares him.\n\nGreat Adaptation by Joseph Losey with Jeanne Moreau in her splendor, Stanley Baker and Virna Lisi \n\n\n\nCast \n  Jeanne Moreau......Eve Olivier  \n  Stanley Baker......Tyvian Jones  \n  Virna Lisi.........francesca Ferrara  \n  James Villiers.....Alan McCormick - a screenwriter  \n  Riccardo Garrone...Michele - a player  \n  Lisa Gastoni.......The red-headed Russian  \n\nCrew \n  Director: Joseph Losey\n  Writers: James Hadley Chase (novel) &amp; Hugo Butler\n\nScreens (Actual Screenshots)\n &lt;a href=&quot;\nhttp://img35.imageshack.us/img35/2906/vlcsnap2011010317h27m58.png&quot; rel=&quot;nofollow&quot; target=&quot;_NEW&quot;&gt;\nhttp://img35.imageshack.us/img35/2906/vlcsnap2011010317h27m58.png&lt;/a&gt; &lt;a href=&quot;\nhttp://img145.imageshack.us/img145/2456/vlcsnap2011010317h39m25.png&quot; rel=&quot;nofollow&quot; target=&quot;_NEW&quot;&gt;\nhttp://img145.imageshack.us/img145/2456/vlcsnap2011010317h39m25.png&lt;/a&gt; &lt;a href=&quot;\nhttp://img560.imageshack.us/img560/4972/vlcsnap2011010317h35m45.png&quot; rel=&quot;nofollow&quot; target=&quot;_NEW&quot;&gt;\nhttp://img560.imageshack.us/img560/4972/vlcsnap2011010317h35m45.png&lt;/a&gt; &lt;a href=&quot;\nhttp://img190.imageshack.us/img190/5400/vlcsnap2011010317h22m25.png&quot; rel=&quot;nofollow&quot; target=&quot;_NEW&quot;&gt;\nhttp://img190.imageshack.us/img190/5400/vlcsnap2011010317h22m25.png&lt;/a&gt; &lt;a href=&quot;\nhttp://img718.imageshack.us/img718/2475/vlcsnap2011010317h19m53.png&quot; rel=&quot;nofollow&quot; target=&quot;_NEW&quot;&gt;\nhttp://img718.imageshack.us/img718/2475/vlcsnap2011010317h19m53.png&lt;/a&gt;\n\n\nGeneral\nComplete name                    : Eva (1962) DVDRip H264 K42\\Eva (1962) DVDRip H264 K42.mp4\nFormat                           : MPEG-4\nFormat profile                   : Base Media\nCodec ID                         : isom\nFile size                        : 1.36 GiB\nDuration                         : 1h 44mn\nOverall bit rate                 : 1 860 Kbps\n\nVideo\nID                               : 1\nFormat                           : AVC\nFormat profile                   : &lt;a class=&quot;__cf_email__&quot; href=&quot;/cdn-cgi/l/email-protection&quot; data-cfemail=&quot;fdb09c9493bdb1ced3cd&quot;&gt;[email&amp;#160;protected]&lt;/a&gt;&lt;script cf-hash='f9e31' type=&quot;text/javascript&quot;&gt;\n/* &lt;![CDATA[ */!function(){try{var t=&quot;currentScript&quot;in document?document.currentScript:function(){for(var t=document.getElementsByTagName(&quot;script&quot;),e=t.length;e--;)if(t[e].getAttribute(&quot;cf-hash&quot;))return t[e]}();if(t&amp;&amp;t.previousSibling){var e,r,n,i,c=t.previousSibling,a=c.getAttribute(&quot;data-cfemail&quot;);if(a){for(e=&quot;&quot;,r=parseInt(a.substr(0,2),16),n=2;a.length-n;n+=2)i=parseInt(a.substr(n,2),16)^r,e+=String.fromCharCode(i);e=document.createTextNode(e),c.parentNode.replaceChild(e,c)}}}catch(u){}}();/* ]]&gt; */&lt;/script&gt;\nFormat settings, CABAC           : Yes\nFormat settings, ReFrames        : 4 frames\nDuration                         : 1h 44mn\nBit rate mode                    : Variable\nBit rate                         : 1 700 Kbps\nMaximum bit rate                 : 6 000 Kbps\nWidth                            : 704 pixels\nHeight                           : 576 pixels\nPixel aspect ratio               : 16:11 (PAL-DVD)\nDisplay \nOriginal display aspect ratio    : 16:9\nFrame rate                       : 25.000 fps\nStandard                         : PAL\nColor space                      : YUV\nChroma subsampling               : 4:2:0\nBit depth                        : 8 bits\nScan type                        : Progressive\nBits/(Pixel*Frame)               : 0.168\nStream size                      : 1.24 GiB (91%)\n\nAudio\nID                               : 2\nFormat                           : AAC\nFormat profile                   : LC\nCodec ID                         : 40\nDuration                         : 1h 44mn\nBit rate mode                    : Constant\nBit rate                         : 160 Kbps\nChannel(s)                       : 2 channels\nChannel positions                : Front: L R\nSampling rate                    : 48.0 KHz\nStream size                      : 119 MiB (9%)\nLanguage                         : English\n\nSubTitle                         : French (.srt)\n                                 : Spanish(.srt)\n","torrent":{"xt":"urn:btih:6da8734bc574cef80beeef3e2265943fd05d0942","amp;dn":"Eva+%281962%29+DVDRip+H264+K42+RE-UPLOAD+READ+NOTES","amp;tr":["udp%3A%2F%2Ftracker.openbittorrent.com%3A80","udp%3A%2F%2Fopen.demonii.com%3A1337","udp%3A%2F%2Ftracker.coppersurfer.tk%3A6969","udp%3A%2F%2Fexodus.desync.com%3A6969"],"infoHash":"6da8734bc574cef80beeef3e2265943fd05d0942","infoHashBuffer":{"type":"Buffer","data":[109,168,115,75,197,116,206,248,11,238,239,62,34,101,148,63,208,93,9,66]},"announce":[],"urlList":[]}}